<svg width="64.856003mm" height="21.313999mm" viewBox="0 0 64.856003 21.313999" version="1.1" id="svg1" xmlns="http://www.w3.org/2000/svg" data-draw-color="white"><defs><clipPath id="textClip1"><use href="#text1"/></clipPath><clipPath id="textClip2"><use href="#text2"/></clipPath></defs>
  
  
  
  
<g transform="translate(-15.019468,-73.525042)"><g id="g1" transform="translate(1.4022307,0.8513544)">
      <path style="display:inline;opacity:0.749533;mix-blend-mode:normal;fill:none;stroke:#cd0000;stroke-width:1.265;stroke-linecap:butt;stroke-linejoin:miter;stroke-opacity:1" d="m 32.65132,74.320117 -6.579142,16.727772 1.8428,-0.477761 1.07873,-3.833548 -6.77991,-4.990473 0.449354,-3.361019 6.278667,6.255051 0.678856,0.540489 3.513354,-4.272748 1.12655,0.959863 -3.39461,4.402371 0.598698,0.546762 -0.06885,0.545417 c 0.409512,0.0455 1.134881,0.02783 1.544393,0.07333 l -0.08532,0.477763 -0.08532,0.477762 -0.211658,0.477762 0.04103,0.477762 0.06839,0.654644 1.603918,-1.33091 1.603917,-1.330909 0.876527,0.602901 3.010882,-5.616561 -1.257828,6.822364 0.876527,0.602902 4.616701,-7.142809 2.953651,-5.224401 c 0.101461,-0.459323 0.421221,-1.843475 -0.744266,-0.998587 L 42.5653,82.66181 c -3.549434,7.307423 -2.324194,5.290545 -2.818049,7.56744 l 2.065995,-2.58768 c 0.258622,-0.07034 0.517244,-0.140685 0.775866,-0.211027 l 0.682519,1.774545 1.084926,0.188383 0.586625,-1.05896 1.290485,-0.333449 1.475142,-0.350509 0.818212,-1.516796 -0.559392,-0.623278 c -0.621729,0.591516 -1.411744,1.381953 -2.048761,1.973469 -0.091,0.705268 -0.345259,0.757764 0.06153,1.872931 l 1.446729,0.04771 2.549784,-2.59525 0.793577,0.243064 -1.256029,3.566081 1.200671,-3.706334 -2.132565,-3.085436 2.148355,1.947094 1.184332,-1.38614 c 0.283893,0.207725 3.077781,-3.28626 3.249845,-3.099797 0.172155,0.186561 -0.777491,2.389969 -1.168109,2.978166 -0.112945,0.170073 -0.82209,1.602431 -0.731574,1.769275 0.09052,0.166844 -0.304191,0.755911 -0.178968,0.920361 0.949122,0.908934 0.592694,0.349953 0.832466,0.474869 0.204756,0.06825 0.409511,0.136502 0.614267,0.204753 l -0.409512,1.706296 c 0.091,0.159254 0.182005,0.318509 0.273008,0.477763 2.014192,-1.112689 3.699856,-3.072749 5.423554,-4.43962 L 56.922005,88.317821 57.527,89.14503 c 0.470859,-0.403331 1.385058,-0.760798 1.412577,-1.209992 0.03413,-0.07963 0.07972,-0.178363 0.278184,-0.384113 0.198468,-0.20575 1.224945,-1.494021 1.259071,-1.573648 l -0.918353,2.360712 0.76507,-0.9661 0.321729,1.097723 2.078129,-0.356547 1.706296,-1.706295 1.713982,-2.340748 2.320559,-3.549095 1.084344,-1.686107 -0.819023,-0.06825 -1.878227,3.0966 -1.329607,2.431797 -1.50154,3.48084 -0.477763,3.003079 c 0.295758,0.091 0.459825,0.274964 0.755583,0.365967 l 0.819021,-0.784426 0.524652,-0.451324 1.221844,-1.551337 0.276761,0.160656 2.200199,-0.711629 1.014562,-1.865628 -0.883984,-0.372888 -2.079448,2.188631 0.281304,0.783696 c 0.0455,0.364009 -0.149144,0.782245 -0.10364,1.146254 l 1.842799,-0.341259 1.569791,-1.092028 0.915679,-0.442848 0.943492,-2.387135 -1.040151,1.396695 c -0.091,0.864523 -0.197293,1.805483 -0.288295,2.670006 l 0.737163,-0.297073 1.803443,-2.031673 0.409511,-0.06825 0.477761,1.706295 0.682519,0.546013 2.252311,-2.115804 -15.697917,-2.798326 -0.04586,-1.062538 c 2.575914,-0.52471 5.335278,-0.529642 8.002917,-0.794462" id="clippath2" clip-path="url(#textClip2)"/>
      <path style="display:inline;opacity:0.749533;mix-blend-mode:normal;fill:none;stroke:#cd0000;stroke-width:2.065;stroke-linecap:butt;stroke-linejoin:miter;stroke-opacity:1" d="m 22.275328,74.758438 -3.872219,7.068193 -1.655784,3.947237 c -0.490976,0.541363 -1.8351,6.556901 -1.418932,6.590404 l 1.610759,0.393449 4.835831,-11.759141 3.533394,-5.643735 -0.868768,5.027876 c -0.818835,2.031365 -0.342058,0.440774 -0.94182,2.544123 -0.122101,0.56556 -1.835838,6.735907 -1.835838,6.735907 -0.78956,7.100049 3.447101,-2.148588 4.068968,-3.528992 l 5.075826,-12.608717" id="clippath1" clip-path="url(#textClip1)"/>
      <path style="font-size:10.5833px; line-height:1.25; font-family:'Hello Gorgeous'; -inkscape-font-specification:'Hello Gorgeous'; text-align:center; text-anchor:middle; display:inline; stroke-width:0; fill: white" d="m 29.09,86.63 c -0.06,-0.05 -0.17,-0.04 -0.26,-0.05 -0.07,0.4 -0.79,0.5 -0.53,1.09 0.03,0.08 -0.07,0.22 -0.11,0.34 -0.2,0.57 -0.39,1.14 -0.57,1.69 0.01,0.1 0.02,0.14 0.03,0.19 0.04,0.32 0.31,0.63 0.52,0.57 0.15,-0.05 0.31,-0.26 0.36,-0.43 0.23,-0.69 0.43,-1.39 0.63,-2.08 0.1,-0.29 0.17,-0.57 0.25,-0.87 0.08,-0.29 -0.19,-0.32 -0.33,-0.44 z m 0.88,-1.76 c -0.08,-0.23 -0.29,-0.29 -0.43,-0.18 -0.11,0.07 -0.14,0.3 -0.14,0.47 0,0.1 0.1,0.22 0.18,0.3 0.07,0.07 0.23,0.17 0.29,0.14 0.13,-0.07 0.22,-0.21 0.35,-0.35 -0.1,-0.15 -0.2,-0.24 -0.24,-0.37 z m 6.37,2.2 c -0.14,-0.3 -0.2,-0.33 -0.43,-0.1 -0.65,0.63 -1.27,1.3 -1.92,1.95 -0.14,0.08 -0.28,0.16 -0.4,0.24 -0.29,0.18 -0.57,0.37 -0.86,0.56 -0.04,-0.03 -0.08,-0.05 -0.13,-0.08 0.04,-0.18 0.06,-0.37 0.14,-0.54 0.15,-0.36 0.33,-0.7 0.5,-1.05 0.12,-0.22 0.21,-0.43 0,-0.68 -0.22,-0.26 -0.48,-0.38 -0.8,-0.28 -0.21,0.07 -0.41,0.15 -0.71,0.25 0.17,-0.44 0.11,-0.78 -0.18,-1.04 -0.21,-0.19 -0.49,-0.13 -0.52,0.14 -0.05,0.36 -0.04,0.73 0.22,1.04 0.3,0.33 0.62,0.59 1.1,0.59 -0.1,0.21 -0.19,0.39 -0.26,0.58 -0.16,0.37 -0.14,0.96 0.28,1.29 0.34,0.28 0.86,0.31 1.25,0.01 0.32,-0.23 0.57,-0.56 0.89,-0.81 0.34,-0.26 0.63,-0.57 0.89,-0.92 0.02,-0.04 0.12,-0.04 0.16,-0.08 0.26,-0.31 0.71,-0.49 0.79,-0.95 z m 8.5,-5.6 c 0.07,-0.11 0.02,-0.36 0.1,-0.39 0.44,-0.22 0.52,-0.61 0.58,-1.03 0.01,-0.04 0.05,-0.12 0.07,-0.12 0.26,0.01 0.28,-0.22 0.35,-0.37 0.47,-1.04 0.92,-2.07 1.38,-3.11 0.12,-0.26 0,-0.57 -0.26,-0.75 -0.28,-0.18 -0.47,-0.17 -0.71,0.05 -0.16,0.14 -0.32,0.28 -0.44,0.44 -0.94,1.32 -1.85,2.67 -2.6,4.11 -0.68,1.3 -1.31,2.62 -1.93,3.95 -0.77,1.67 -1.43,3.4 -2,5.15 -0.17,0.53 -0.08,0.7 0.39,0.97 0.23,0.14 0.41,0.15 0.59,-0.07 0.29,-0.34 0.57,-0.7 0.87,-1.03 0.46,-0.52 0.93,-1.02 1.42,-1.52 0.15,0.47 0.25,0.86 0.39,1.24 0.16,0.47 0.57,0.68 0.99,0.84 0.36,0.15 0.68,-0.02 0.94,-0.28 0.32,-0.32 0.7,-1.9 0.61,-1.78 -0.46,0.62 -0.91,1.25 -1.66,1.63 -0.03,-0.07 -0.08,-0.14 -0.11,-0.21 -0.12,-0.36 -0.24,-0.73 -0.35,-1.09 -0.25,-0.86 -1.03,-1.14 -1.74,-0.63 -0.13,0.08 -0.24,0.18 -0.36,0.28 0.01,-0.13 0.02,-0.25 0.06,-0.37 0.32,-0.81 0.67,-1.62 1.17,-2.34 l -0.01,-0.01 c 0.13,-0.2 0.25,-0.41 0.38,-0.61 v 0 c 0.08,-0.13 0.17,-0.25 0.24,-0.37 v -0.01 c 0.13,-0.2 0.25,-0.4 0.37,-0.61 v 0 c 0.08,-0.13 0.17,-0.24 0.25,-0.37 0.08,-0.08 0.17,-0.15 0.23,-0.24 0.08,-0.14 0.19,-0.29 0.04,-0.44 0.13,-0.08 0.26,-0.16 0.36,-0.26 0.1,-0.1 0.29,-0.2 0.04,-0.35 0.11,-0.08 0.25,-0.15 0.32,-0.26 z m -0.67,0.02 c -0.04,0.23 -0.15,0.3 -0.32,0.35 0.07,-0.24 0.16,-0.49 0.23,-0.74 v 0 c 0.04,-0.08 0.08,-0.16 0.13,-0.24 v 0 c 0.24,-0.46 0.5,-0.91 0.74,-1.35 0.07,-0.03 0.15,-0.07 0.22,-0.11 -0.2,0.42 -0.39,0.86 -0.59,1.28 -0.14,0.28 -0.35,0.53 -0.41,0.81 z m 5.96,5.61 c -0.11,-0.02 -0.24,0.03 -0.34,0.1 -0.44,0.31 -0.89,0.65 -1.33,0.95 -0.51,0.34 -1.01,0.69 -1.52,0.99 -0.18,0.11 -0.49,0.21 -0.62,0.13 -0.22,-0.14 -0.02,-0.4 0.03,-0.61 0.01,-0.03 0.01,-0.08 0.01,-0.12 0,-0.23 0.14,-0.23 0.34,-0.29 1.1,-0.29 1.75,-1.06 2.11,-2.1 0.03,-0.11 0,-0.24 -0.05,-0.35 -0.2,-0.49 -0.6,-0.62 -1.16,-0.39 -0.99,0.43 -1.7,1.2 -2.23,2.11 -0.984898,1.782196 0.556484,2.412317 1.33,2.48 0.26,-0.08 0.56,-0.13 0.78,-0.26 0.54,-0.33 1.07,-0.68 1.56,-1.06 0.565931,-0.4306 1.890667,-1.507212 1.09,-1.58 z m -1.85,-1.12 c -0.33,0.76 -0.74,1.44 -1.53,1.82 0.04,-0.18 0.08,-0.33 0.13,-0.48 v 0 l 0.73,-0.86 c 0.23,-0.17 0.46,-0.33 0.68,-0.49 z m 2.51,0.6 c -0.06,-0.05 -0.17,-0.04 -0.26,-0.05 -0.553597,0.389083 -0.414054,0.915538 -0.64,1.43 -0.2,0.57 -0.39,1.14 -0.57,1.69 0.01,0.1 0.02,0.14 0.03,0.19 0.04,0.32 0.31,0.63 0.52,0.57 0.15,-0.05 0.31,-0.26 0.36,-0.43 0.23,-0.69 0.43,-1.39 0.63,-2.08 0.1,-0.29 0.17,-0.57 0.25,-0.87 0.08,-0.29 -0.19,-0.32 -0.33,-0.44 z m 0.88,-1.76 c -0.08,-0.23 -0.29,-0.29 -0.43,-0.18 -0.11,0.07 -0.14,0.3 -0.14,0.47 0,0.1 0.1,0.22 0.18,0.3 0.07,0.07 0.23,0.17 0.29,0.14 0.13,-0.07 0.22,-0.21 0.35,-0.35 -0.1,-0.15 -0.2,-0.24 -0.24,-0.37 z m 5.94,2.1 c -0.65,0.63 -1.27,1.3 -1.92,1.95 -0.14,0.08 -0.28,0.16 -0.4,0.24 -0.29,0.18 -0.57,0.37 -0.86,0.56 -0.04,-0.03 -0.08,-0.05 -0.13,-0.08 0.04,-0.18 0.06,-0.37 0.14,-0.54 0.15,-0.36 0.33,-0.7 0.5,-1.05 0.12,-0.22 0.21,-0.43 0,-0.68 -0.22,-0.26 -0.48,-0.38 -0.8,-0.28 -0.21,0.07 -0.41,0.15 -0.71,0.25 0.17,-0.44 0.11,-0.78 -0.18,-1.04 -0.21,-0.19 -0.49,-0.13 -0.52,0.14 -0.05,0.36 -0.04,0.73 0.22,1.04 0.3,0.33 0.62,0.59 1.1,0.59 -0.1,0.21 -0.19,0.39 -0.26,0.58 -0.16,0.37 -0.14,0.96 0.28,1.29 0.34,0.28 0.86,0.31 1.25,0.01 0.32,-0.23 0.57,-0.56 0.89,-0.81 0.49812,-0.664565 1.63,-2.4 1.4,-2.17 z M 55.7,88.9 c -42.082763,-16.226312 -42.082763,-16.226312 0,0 z m 8.18,-2 c -0.33,0.23 -0.63,0.5 -0.98,0.72 -0.69,0.42 -1.4,0.75 -2.24,0.54 0,-0.03 -0.01,-0.05 -0.01,-0.07 0.01,-0.04 0.03,-0.07 0.04,-0.12 0.07,-0.57 0.4,-1.21 -0.41,-1.56 -0.04,-0.02 -0.05,-0.16 -0.05,-0.24 0.01,-0.47 -0.43,-0.78 -0.84,-0.56 -0.474942,0.248779 -4.058431,2.711879 -2.15,3.82 0.23,0.14 0.49,0.23 0.74,0.03 0.42,-0.34 0.85,-0.67 1.28,-0.99 v 0 l 0.69,-0.6 c 0.02,0.02 0.03,0.03 0.04,0.05 0.42,0.71 1.03,1.08 1.85,0.9 1.153301,-0.179571 1.889985,-0.977832 2.58,-1.83 -0.12,-0.24 -0.31,-0.24 -0.53,-0.08 z m -5.29,0.56 c -0.13,0.12 -0.24,0.22 -0.04,0.38 0.02,0.02 0,0.15 -0.04,0.19 -0.3,0.23 -0.61,0.44 -0.97,0.71 -0.01,-0.32 0.12,-0.52 0.31,-0.67 0.16,-0.12 0.07,-0.23 0.05,-0.36 0.17,-0.1 0.34,-0.19 0.49,-0.31 0.37,-0.34 0.73,-0.68 1.09,-1.02 -0.04,0.12 -0.06,0.23 -0.14,0.32 -0.23,0.26 -0.49,0.51 -0.74,0.75 z m 11.16,-5.1 c -0.2,0 -0.39,-0.08 -0.59,-0.1 -0.33,-0.02 -0.65,-0.01 -1.05,-0.01 0.07,-0.15 0.11,-0.22 0.15,-0.29 0.51,-0.69 0.9,-1.45 1.27,-2.22 0.2,-0.41 0.17,-0.79 -0.12,-1.14 -0.2,-0.25 -0.47,-0.29 -0.69,-0.06 -0.41,0.4 -0.8,0.81 -1.19,1.25 -0.59,0.7 -1.09,1.46 -1.51,2.28 -0.14,0.26 -0.41,0.4 -0.71,0.44 -0.33,0.04 -0.65,0.06 -0.96,0.13 -0.58,0.11 -1.15,0.22 -1.73,0.37 -0.42,0.12 -0.53,0.33 -0.42,0.72 0.01,0.04 0.07,0.12 0.11,0.12 0.19,0.01 0.39,0.03 0.57,-0.01 0.36,-0.07 0.7,-0.22 1.06,-0.28 0.43,-0.05 0.85,-0.37 1.32,-0.13 -0.08,0.22 -0.16,0.44 -0.25,0.67 -0.3,0.73 -0.61,1.45 -0.91,2.18 -0.44,1.09 -0.76,2.22 -0.99,3.38 -0.1,0.41 -0.04,0.81 0.11,1.21 0.12,0.3 0.91,0.53 1.31,0.42 0.69,-0.19 1.16,-0.67 1.64,-1.14 0.39,-0.4 0.74,-0.87 1.08,-1.32 0.381432,0.186456 1.978078,-3.354285 0.36,-1.71 -0.25,0.34 -0.51,0.69 -0.77,1.02 -0.37,0.47 -0.73,0.94 -1.13,1.37 -0.48,0.5 -0.91,1.06 -1.58,1.34 -0.19,-0.86 0.02,-1.59 0.18,-2.22 0.03,-0.12 0.13,-0.24 0.11,-0.35 -0.05,-0.39 0.21,-0.69 0.29,-1.04 0.07,-0.37 0.36,-0.69 0.43,-1.06 0.04,-0.2 0.1,-0.32 0.23,-0.44 0.55,-0.52 1.06,-1.08 1.44,-1.74 v 0 c 0.13,-0.17 0.25,-0.34 0.38,-0.5 h -0.01 c 0.08,-0.13 0.17,-0.24 0.24,-0.36 0.25,-0.05 0.5,-0.11 0.75,-0.14 0.65759,0.06673 1.153692,-0.273509 1.68,0.1 0.06,-0.12 0.16,-0.23 0.18,-0.36 0.03,-0.19 0.02,-0.37 -0.26,-0.38 z m 2.44,4.92 c -0.06,-0.1 -0.18,-0.17 -0.29,-0.18 -0.11,-0.02 -0.24,0.03 -0.34,0.1 -0.44,0.31 -0.89,0.65 -1.33,0.95 -0.51,0.34 -1.01,0.69 -1.52,0.99 -0.18,0.11 -0.49,0.21 -0.62,0.13 -0.22,-0.14 -0.02,-0.4 0.03,-0.61 0.01,-0.03 0.01,-0.08 0.01,-0.12 0,-0.23 0.14,-0.23 0.34,-0.29 1.1,-0.29 1.75,-1.06 2.11,-2.1 0.03,-0.11 0,-0.24 -0.05,-0.35 -0.2,-0.49 -0.6,-0.62 -1.16,-0.39 -0.99,0.43 -1.7,1.2 -2.23,2.11 -0.21,0.38 -0.39,0.83 -0.3,1.27 0.13,0.68 0.83,1.14 1.63,1.21 0.26,-0.08 0.56,-0.13 0.78,-0.26 0.54,-0.33 1.07,-0.68 1.56,-1.06 0.279258,-0.213496 1.135069,-1.119305 1.4,-1.39 z m -2.14,-1.3 c -0.33,0.76 -0.74,1.44 -1.53,1.82 0.04,-0.18 0.08,-0.33 0.13,-0.48 v 0 l 0.67,-0.83 C 69.55,86.32 69.78,86.16 70,86 Z m 8.03,1.07 c -0.14,-0.12 -0.25,-0.11 -0.39,0.08 -0.31,0.41 -0.66,0.81 -1.03,1.17 -0.3,0.29 -0.62,0.53 -0.97,0.72 -0.34,0.18 -0.55,0.02 -0.59,-0.35 -0.04,-0.44 -0.08,-0.89 -0.13,-1.34 -0.05,-0.55 -0.53,-0.79 -1.04,-0.52 -0.12,0.07 -0.24,0.15 -0.34,0.24 -0.41,0.4 -0.8,0.83 -1.21,1.24 0.06,-0.25 0.12,-0.52 0.2,-0.77 0.19,-0.49 0.39,-0.97 0.59,-1.46 0.11,-0.24 0.05,-0.39 -0.2,-0.54 -0.28,-0.17 -0.43,-0.08 -0.6,0.13 -0.08,0.12 -0.19,0.21 -0.25,0.34 -0.42,0.86 -0.93,1.67 -1.04,2.65 -0.04,0.43 0.08,0.81 0.44,1.03 0.44,0.24 0.72,0.21 1.09,-0.16 0.16,-0.16 0.33,-0.32 0.47,-0.5 0.44,-0.55 0.88,-1.1 1.32,-1.66 0.07,0.13 0.15,0.21 0.17,0.31 0.02,0.16 0.02,0.33 0.03,0.49 0.06,0.91 0.76,1.41 1.62,1.1 0.33,-0.12 0.62,-0.35 0.92,-0.55 0.13,-0.07 0.22,-0.19 0.31,-0.3 0.07,-0.1 0.1,-0.22 0.16,-0.32 0.16,-0.2 0.34,-0.39 0.51,-0.59 0.13,-0.16 0.12,-0.32 -0.04,-0.43 z" id="text2" aria-label="Wir heiraten"/>
      <path style="font-size:10.5833px; line-height:1.25; font-family:'Hello Gorgeous'; -inkscape-font-specification:'Hello Gorgeous'; text-align:center; text-anchor:middle; display:inline; stroke-width:0; fill: white" d="m 31.179773,73.878634 c -0.08,-0.22 -0.25,-0.33 -0.52,-0.36 -0.26,-0.04 -0.29,0.06 -0.34,0.26 -0.07,0.28 -0.2,0.53 -0.32,0.79 -0.42,0.98 -0.86,1.97 -1.28,2.95 -0.44,1.05 -0.88,2.1 -1.32,3.13 -0.42,0.99 -0.87,1.97 -1.29,2.96 -0.56,1.32 -1.11,2.65 -1.67,3.97 -0.29,0.66 -0.55,1.31 -0.86,1.96 -0.34,0.68 -0.72,1.34 -1.08,2.02 -0.04,-0.02 -0.08,-0.03 -0.13,-0.04 0,-0.25 -0.03,-0.52 0,-0.77 0.11,-0.76 0.23,-1.52 0.37,-2.29 0.15,-0.81 0.32,-1.63 0.48,-2.44 0.14,-0.72 0.39,-2.16 0.39,-2.16 0.03954,-0.159687 0.09379,-0.362808 0.13,-0.5 0.04234,-0.158441 0.08878,-0.361482 0.12,-0.5 0.05,-0.16 0.1,-0.33 0.14,-0.49 0,-0.142176 0.04901,-0.165786 0.13,-0.51 v 0 l 0.24,-0.87 c 0.546291,-1.980304 -0.322039,1.500808 1.41,-4.85 0.02,-0.08 -0.02,-0.24 -0.08,-0.31 -0.49,-0.42 -0.6,-0.4 -0.97,0.14 -0.04,0.07 -0.08,0.15 -0.12,0.21 -0.84,1.49 -1.68,2.97 -2.49,4.48 -0.93,1.75 -1.84,3.49 -2.74,5.25 -0.72,1.38 -1.39,2.77 -2.11,4.14 -0.3,0.55 -0.53,1.15 -0.99,1.61 -0.07,-1.13 0.28,-2.19 0.59,-3.25 0.58,-1.98 1.3,-3.92 2.19,-5.78 0.83,-1.75 1.66,-3.49 2.49,-5.23 0.19,-0.38 0.39,-0.75 0.58,-1.13 v 0 c 0.14,-0.2 0.28,-0.4 0.4,-0.6 0.17,-0.24 0.06,-0.4 -0.17,-0.52 v 0 c -0.49,-0.48 -0.57,-0.48 -1.01,-0.02 -0.15,0.14 -0.26,0.32 -0.38,0.48 -1.57,2.17 -2.76,4.54 -3.85,6.97 -0.24,0.54 -0.51,1.07 -0.7,1.62 -0.54,1.6 -1.17,3.16 -1.47,4.83 -0.19,1.06 -0.37,2.13 -0.17,3.21 0.08,0.43 0.44,0.8 0.94,0.93 0.5,0.12 0.87,0 1.13,-0.4 0.29,-0.44 0.54,-0.91 0.79,-1.38 0.35,-0.66 0.67,-1.34 1.02,-2.01 0.35,-0.66 0.58,-1.37 0.94,-2.02 0.47,-0.86 0.83,-1.77 1.27,-2.64 0.51,-1.02 1.06,-2.01 1.58,-3.03 0.06,-0.12 0.47,-0.99 0.51,-1.05 0.15,-0.19 0.26,-0.39 0.39,-0.58 0.01,0.06 0.02,0.14 0,0.2 -0.44,1.64 -0.91,3.28 -1.32,4.92 -0.22,0.85 -0.37,1.7 -0.53,2.56 -0.12,0.59 -0.23,1.2 -0.29,1.8 -0.07,0.83 -0.28,1.64 -0.11,2.49 0.06,0.34 0.11,0.66 0.47,0.76 0.31,0.08 0.59,0.22 0.95,0.08 0.5,-0.18 0.79,-0.55 1.08,-0.95 0.78,-1.1 1.29,-2.34 1.85,-3.56 0.16,-0.37 0.26,-0.76 0.39,-1.14 0.01283,-0.0328 0.41,-1.03 0.49,-1.24 v 0 l 0.13,-0.25 c 0.34,-0.83 0.67,-1.65 1.01,-2.48 h -0.01 c 0.3,-0.71 0.58,-1.41 0.87,-2.12 v 0 l 1.75,-4.22 c 0.06712,-0.209895 0.156867,-0.415054 0.24,-0.62 v 0 c 0.28,-0.69 0.56,-1.37 0.83,-2.04 0.04,-0.12 0.06,-0.26 0.02,-0.37 z m -7.67,10.51 c -9.842763,-11.816312 -9.842763,-11.816312 0,0 z m 0.33,-1.48 c -10.172763,-10.336312 -10.172763,-10.336312 0,0 z m 4.47,-1.78 c 0.02,-0.01 0.03,-0.03 0.05,-0.04 0.01,0.02 0.01,0.04 0.02,0.06 -0.02,-0.01 -0.04,-0.01 -0.07,-0.02 z" id="text1" aria-label="Wir heiraten"/>
    </g></g></svg>
